<?xml version="1.0" encoding="UTF-8" standalone="no"?>
<svg
   xmlns:dc="http://purl.org/dc/elements/1.1/"
   xmlns:cc="http://creativecommons.org/ns#"
   xmlns:rdf="http://www.w3.org/1999/02/22-rdf-syntax-ns#"
   xmlns:svg="http://www.w3.org/2000/svg"
   xmlns="http://www.w3.org/2000/svg"
   id="svg824"
   version="1.1"
   viewBox="0 0 17.991665 9.5249995"
   height="9.5249996mm"
   width="17.991665mm">
  <defs
     id="defs818" />
  <metadata
     id="metadata821">
    <rdf:RDF>
      <cc:Work
         rdf:about="">
        <dc:format>image/svg+xml</dc:format>
        <dc:type
           rdf:resource="http://purl.org/dc/dcmitype/StillImage" />
        <dc:title></dc:title>
      </cc:Work>
    </rdf:RDF>
  </metadata>
  <g
     transform="translate(-7.4898372,-121.68755)"
     id="layer1">
    <g
       transform="translate(-1.0871155e-6,-3.2844268)"
       id="text1371"
       style="font-style:normal;font-variant:normal;font-weight:bold;font-stretch:normal;font-size:2.95674324px;line-height:125%;font-family:sans-serif;-inkscape-font-specification:'sans-serif Bold';text-align:center;letter-spacing:0px;word-spacing:0px;writing-mode:lr-tb;text-anchor:middle;fill:#f7c916;fill-opacity:1;stroke:none;stroke-width:0.09239823px;stroke-linecap:butt;stroke-linejoin:miter;stroke-opacity:1"
       aria-label="askgames.io">
      <path
         id="path1373"
         style="font-style:normal;font-variant:normal;font-weight:bold;font-stretch:normal;font-family:'Open Sans';-inkscape-font-specification:'Open Sans Bold';fill:#f7c916;fill-opacity:1;stroke-width:0.09239823px"
         d="m 8.6217152,130.50224 -0.08518,-0.21944 h -0.01155 q -0.1111666,0.14004 -0.2295518,0.1949 -0.1169415,0.0534 -0.3060691,0.0534 -0.2324393,0 -0.3667055,-0.13282 -0.1328224,-0.13283 -0.1328224,-0.37826 0,-0.25698 0.1790215,-0.37826 0.1804653,-0.12271 0.5428396,-0.13571 l 0.2800821,-0.009 v -0.0707 q 0,-0.24543 -0.2512077,-0.24543 -0.1934587,0 -0.4547725,0.11694 l -0.1458159,-0.29741 q 0.2786384,-0.14581 0.6179131,-0.14581 0.3248375,0 0.4980842,0.14148 0.1732467,0.14149 0.1732467,0.43023 v 1.07557 z m -0.129935,-0.74785 -0.1703592,0.006 q -0.1920151,0.006 -0.285857,0.0693 -0.093842,0.0635 -0.093842,0.19346 0,0.18624 0.2136709,0.18624 0.1530346,0 0.2439891,-0.0881 0.092398,-0.0881 0.092398,-0.23388 z" />
      <path
         id="path1375"
         style="font-style:normal;font-variant:normal;font-weight:bold;font-stretch:normal;font-family:'Open Sans';-inkscape-font-specification:'Open Sans Bold';fill:#f7c916;fill-opacity:1;stroke-width:0.09239823px"
         d="m 10.507217,130.02293 q 0,0.24832 -0.173247,0.37825 -0.171803,0.12994 -0.515409,0.12994 -0.1761341,0 -0.3002942,-0.0245 -0.1241601,-0.0231 -0.2324393,-0.0693 v -0.36382 q 0.1227164,0.0577 0.2757509,0.0967 0.1544783,0.039 0.2714198,0.039 0.2396578,0 0.2396578,-0.1386 0,-0.052 -0.03176,-0.0837 -0.03176,-0.0332 -0.1097227,-0.0736 -0.077961,-0.0419 -0.207896,-0.0967 -0.1862401,-0.078 -0.2743072,-0.14437 -0.086623,-0.0664 -0.1270476,-0.15159 -0.03898,-0.0866 -0.03898,-0.21223 0,-0.21511 0.1660281,-0.33205 0.1674718,-0.11839 0.4735409,-0.11839 0.2916325,0 0.5673835,0.12705 l -0.132824,0.31762 q -0.121271,-0.052 -0.226663,-0.0852 -0.105392,-0.0332 -0.2151151,-0.0332 -0.1949025,0 -0.1949025,0.1054 0,0.0592 0.06208,0.1025 0.063524,0.0433 0.2757506,0.12849 0.189128,0.0765 0.277195,0.14293 0.08807,0.0664 0.129935,0.15303 0.04187,0.0866 0.04187,0.20646 z" />
      <path
         id="path1377"
         style="font-style:normal;font-variant:normal;font-weight:bold;font-stretch:normal;font-family:'Open Sans';-inkscape-font-specification:'Open Sans Bold';fill:#f7c916;fill-opacity:1;stroke-width:0.09239823px"
         d="m 11.276721,129.62446 0.192015,-0.24543 0.451885,-0.49087 h 0.49664 l -0.641012,0.70021 0.679993,0.91387 h -0.50819 l -0.464879,-0.654 -0.189128,0.15159 v 0.50241 H 10.85371 v -2.24643 h 0.440335 v 1.00194 l -0.0231,0.36671 z" />
      <path
         id="path1379"
         style="font-style:normal;font-variant:normal;font-weight:bold;font-stretch:normal;font-family:'Open Sans';-inkscape-font-specification:'Open Sans Bold';fill:#f7c916;fill-opacity:1;stroke-width:0.09239823px"
         d="m 14.094867,128.88816 v 0.22378 l -0.252652,0.065 q 0.0693,0.10828 0.0693,0.24254 0,0.25987 -0.181909,0.40569 -0.180465,0.14437 -0.502415,0.14437 l -0.0794,-0.004 -0.06497,-0.007 q -0.06785,0.052 -0.06785,0.1155 0,0.0953 0.242546,0.0953 h 0.274307 q 0.265645,0 0.404242,0.11406 0.140041,0.11405 0.140041,0.33494 0,0.28297 -0.23677,0.43889 -0.235327,0.15592 -0.677106,0.15592 -0.337831,0 -0.516853,-0.11838 -0.177577,-0.11694 -0.177577,-0.32917 0,-0.14582 0.09095,-0.24399 0.09096,-0.0982 0.267089,-0.14004 -0.06785,-0.0289 -0.118385,-0.0938 -0.05053,-0.0664 -0.05053,-0.14004 0,-0.0924 0.05342,-0.15304 0.05342,-0.0621 0.154478,-0.12127 -0.127047,-0.0549 -0.202121,-0.17613 -0.07363,-0.12128 -0.07363,-0.28586 0,-0.2642 0.171803,-0.40857 0.171803,-0.14438 0.490866,-0.14438 0.06785,0 0.160253,0.013 0.09384,0.0115 0.119829,0.0173 z m -1.245933,1.84219 q 0,0.091 0.08662,0.14293 0.08807,0.052 0.245432,0.052 0.236771,0 0.371037,-0.065 0.134266,-0.065 0.134266,-0.17758 0,-0.091 -0.0794,-0.12561 -0.07941,-0.0346 -0.245433,-0.0346 h -0.228108 q -0.121273,0 -0.203565,0.0563 -0.08085,0.0577 -0.08085,0.15159 z m 0.160253,-1.31379 q 0,0.13138 0.05919,0.2079 0.06064,0.0765 0.183353,0.0765 0.12416,0 0.181909,-0.0765 0.05775,-0.0765 0.05775,-0.2079 0,-0.29163 -0.239658,-0.29163 -0.242546,0 -0.242546,0.29163 z" />
      <path
         id="path1381"
         style="font-style:normal;font-variant:normal;font-weight:bold;font-stretch:normal;font-family:'Open Sans';-inkscape-font-specification:'Open Sans Bold';fill:#f7c916;fill-opacity:1;stroke-width:0.09239823px"
         d="m 15.38411,130.50224 -0.08518,-0.21944 h -0.01155 q -0.111167,0.14004 -0.229552,0.1949 -0.116942,0.0534 -0.306069,0.0534 -0.23244,0 -0.366706,-0.13282 -0.132822,-0.13283 -0.132822,-0.37826 0,-0.25698 0.179021,-0.37826 0.180466,-0.12271 0.54284,-0.13571 l 0.280082,-0.009 v -0.0707 q 0,-0.24543 -0.251208,-0.24543 -0.193458,0 -0.454772,0.11694 l -0.145816,-0.29741 q 0.278638,-0.14581 0.617913,-0.14581 0.324838,0 0.498084,0.14148 0.173247,0.14149 0.173247,0.43023 v 1.07557 z m -0.129935,-0.74785 -0.170359,0.006 q -0.192015,0.006 -0.285857,0.0693 -0.09384,0.0635 -0.09384,0.19346 0,0.18624 0.213671,0.18624 0.153034,0 0.243989,-0.0881 0.0924,-0.0881 0.0924,-0.23388 z" />
      <path
         id="path1383"
         style="font-style:normal;font-variant:normal;font-weight:bold;font-stretch:normal;font-family:'Open Sans';-inkscape-font-specification:'Open Sans Bold';fill:#f7c916;fill-opacity:1;stroke-width:0.09239823px"
         d="m 17.588674,130.50224 h -0.440335 v -0.94275 q 0,-0.17469 -0.05919,-0.26131 -0.05775,-0.0881 -0.183352,-0.0881 -0.168916,0 -0.245433,0.12416 -0.07652,0.12416 -0.07652,0.40858 v 0.75939 h -0.440336 v -1.61408 h 0.336388 l 0.05919,0.20645 h 0.02454 q 0.06497,-0.11116 0.187684,-0.17324 0.122717,-0.0635 0.281526,-0.0635 0.362375,0 0.490866,0.23677 h 0.03898 q 0.06497,-0.11261 0.190572,-0.17469 0.127047,-0.0621 0.285857,-0.0621 0.274307,0 0.414348,0.14149 0.141485,0.14004 0.141485,0.45044 v 1.05247 H 18.15317 v -0.94275 q 0,-0.17469 -0.05919,-0.26131 -0.05775,-0.0881 -0.183353,-0.0881 -0.161697,0 -0.242545,0.1155 -0.0794,0.1155 -0.0794,0.3667 z" />
      <path
         id="path1385"
         style="font-style:normal;font-variant:normal;font-weight:bold;font-stretch:normal;font-family:'Open Sans';-inkscape-font-specification:'Open Sans Bold';fill:#f7c916;fill-opacity:1;stroke-width:0.09239823px"
         d="m 19.716721,129.17113 q -0.140041,0 -0.219446,0.0895 -0.0794,0.0881 -0.09095,0.25121 h 0.617914 q -0.0029,-0.16314 -0.08518,-0.25121 -0.08229,-0.0895 -0.222333,-0.0895 z m 0.06208,1.35999 q -0.389805,0 -0.609251,-0.21512 -0.219446,-0.21511 -0.219446,-0.60925 0,-0.40568 0.202121,-0.62657 0.203565,-0.22234 0.561608,-0.22234 0.342162,0 0.532734,0.19491 0.190571,0.1949 0.190571,0.5385 v 0.21368 h -1.040924 q 0.0072,0.18768 0.111167,0.29307 0.103948,0.10539 0.291632,0.10539 0.145816,0 0.275751,-0.0303 0.129935,-0.0303 0.27142,-0.0967 v 0.34072 q -0.115498,0.0577 -0.246877,0.0852 -0.131379,0.0289 -0.320506,0.0289 z" />
      <path
         id="path1387"
         style="font-style:normal;font-variant:normal;font-weight:bold;font-stretch:normal;font-family:'Open Sans';-inkscape-font-specification:'Open Sans Bold';fill:#f7c916;fill-opacity:1;stroke-width:0.09239823px"
         d="m 21.924173,130.02293 q 0,0.24832 -0.173247,0.37825 -0.171803,0.12994 -0.515409,0.12994 -0.176134,0 -0.300294,-0.0245 -0.12416,-0.0231 -0.232439,-0.0693 v -0.36382 q 0.122716,0.0577 0.275751,0.0967 0.154478,0.039 0.271419,0.039 0.239658,0 0.239658,-0.1386 0,-0.052 -0.03176,-0.0837 -0.03176,-0.0332 -0.109722,-0.0736 -0.07796,-0.0419 -0.207896,-0.0967 -0.186241,-0.078 -0.274308,-0.14437 -0.08662,-0.0664 -0.127047,-0.15159 -0.03898,-0.0866 -0.03898,-0.21223 0,-0.21511 0.166028,-0.33205 0.167472,-0.11839 0.473541,-0.11839 0.291632,0 0.567383,0.12705 l -0.132822,0.31762 q -0.121273,-0.052 -0.226665,-0.0852 -0.105392,-0.0332 -0.215114,-0.0332 -0.194903,0 -0.194903,0.1054 0,0.0592 0.06208,0.1025 0.06352,0.0433 0.275751,0.12849 0.189128,0.0765 0.277195,0.14293 0.08807,0.0664 0.129935,0.15303 0.04187,0.0866 0.04187,0.20646 z" />
      <path
         id="path1389"
         style="font-style:normal;font-variant:normal;font-weight:bold;font-stretch:normal;font-family:'Open Sans';-inkscape-font-specification:'Open Sans Bold';fill:#f7c916;fill-opacity:1;stroke-width:0.09239823px"
         d="m 22.208585,130.29579 q 0,-0.12127 0.06497,-0.18335 0.06497,-0.0621 0.189128,-0.0621 0.119829,0 0.184796,0.0635 0.06641,0.0635 0.06641,0.18191 0,0.11405 -0.06641,0.18047 -0.06641,0.065 -0.184796,0.065 -0.121273,0 -0.187684,-0.0635 -0.06641,-0.065 -0.06641,-0.18191 z" />
      <path
         id="path1391"
         style="font-style:normal;font-variant:normal;font-weight:bold;font-stretch:normal;font-family:'Open Sans';-inkscape-font-specification:'Open Sans Bold';fill:#f7c916;fill-opacity:1;stroke-width:0.09239823px"
         d="m 23.095031,128.47093 q 0,-0.21512 0.239658,-0.21512 0.239658,0 0.239658,0.21512 0,0.1025 -0.06064,0.16025 -0.05919,0.0563 -0.179022,0.0563 -0.239658,0 -0.239658,-0.21655 z m 0.459104,2.03131 h -0.440336 v -1.61408 h 0.440336 z" />
      <path
         id="path1393"
         style="font-style:normal;font-variant:normal;font-weight:bold;font-stretch:normal;font-family:'Open Sans';-inkscape-font-specification:'Open Sans Bold';fill:#f7c916;fill-opacity:1;stroke-width:0.09239823px"
         d="m 24.365508,129.69231 q 0,0.23966 0.07796,0.36238 0.0794,0.12272 0.256982,0.12272 0.176134,0 0.252652,-0.12128 0.07796,-0.12271 0.07796,-0.36382 0,-0.23965 -0.07796,-0.35948 -0.07796,-0.11983 -0.255539,-0.11983 -0.176134,0 -0.254095,0.11983 -0.07796,0.11838 -0.07796,0.35948 z m 1.115997,0 q 0,0.39414 -0.207896,0.61647 -0.207896,0.22234 -0.578933,0.22234 -0.232439,0 -0.410017,-0.10106 -0.177578,-0.10251 -0.272863,-0.29308 -0.09529,-0.19057 -0.09529,-0.44467 0,-0.39558 0.206452,-0.61502 0.206453,-0.21945 0.580377,-0.21945 0.232439,0 0.410017,0.10106 0.177578,0.10106 0.272863,0.29019 0.09529,0.18913 0.09529,0.44322 z" />
    </g>
  </g>
</svg>
