<?xml version="1.0" encoding="UTF-8" standalone="no"?>
<svg
   xmlns:dc="http://purl.org/dc/elements/1.1/"
   xmlns:cc="http://creativecommons.org/ns#"
   xmlns:rdf="http://www.w3.org/1999/02/22-rdf-syntax-ns#"
   xmlns:svg="http://www.w3.org/2000/svg"
   xmlns="http://www.w3.org/2000/svg"
   width="17.861919mm"
   height="9.5249872mm"
   viewBox="0 0 17.86192 9.5249872"
   version="1.1"
   id="svg8">
  <defs
     id="defs2" />
  <metadata
     id="metadata5">
    <rdf:RDF>
      <cc:Work
         rdf:about="">
        <dc:format>image/svg+xml</dc:format>
        <dc:type
           rdf:resource="http://purl.org/dc/dcmitype/StillImage" />
        <dc:title></dc:title>
      </cc:Work>
    </rdf:RDF>
  </metadata>
  <g
     id="layer1"
     transform="translate(-29.274255,-131.30894)">
    <path
       d="m 31.08829,137.10301 -0.04592,-0.0353 c -0.08118,-0.0635 -0.14987,-0.14105 -0.202721,-0.22876 -0.874273,-1.43444 -1.565394,-3.41263 -1.565394,-3.41263 l 2.267471,1.0294 -0.562237,-2.27731 2.995115,2.32491 0.05218,-1.11998 c 0,0 1.104133,0.6814 1.809089,1.14607 0.05114,0.56126 -0.06509,1.12498 -0.334592,1.62261 -0.269505,0.49762 -0.680667,0.90773 -1.183429,1.18043 -0.502787,0.27268 -1.075531,0.39619 -1.648566,0.3555 -0.573034,-0.0407 -1.121679,-0.24379 -1.579173,-0.58465 z"
       fill="#2e2d66"
       id="path852"
       style="stroke-width:0.264583" />
    <path
       d="m 39.338318,133.9143 -0.02871,-1.05549 v -0.0545 c -2.7e-5,-0.20259 -0.04202,-0.40306 -0.123428,-0.58925 -0.08141,-0.18619 -0.200555,-0.35422 -0.350203,-0.49389 -0.149622,-0.13967 -0.326628,-0.24806 -0.520277,-0.31861 -0.193622,-0.0705 -0.399864,-0.10179 -0.60616,-0.0918 -0.820288,0.0384 -1.45034,0.73104 -1.45034,1.53526 v 1.9718 c 0,0 -2.6e-5,0 -0.0021,0 -0.008,0.79491 -0.306996,1.56054 -0.84246,2.15733 -0.535464,0.59677 -1.271746,0.98499 -2.074651,1.09384 -0.153696,0.0201 -0.308583,0.0302 -0.463629,0.0302 -0.441801,4.7e-4 -0.87929,-0.0852 -1.287013,-0.25205 0.278297,0.30507 0.589545,0.57963 0.928291,0.81881 0.425529,0.29348 0.89617,0.51022 1.411181,0.59388 1.631421,0.26816 3.647123,0.0806 4.887701,-2.1614 0.392642,-0.70673 0.567452,-1.50966 0.544751,-2.31569 z m -1.761596,-0.43499 c -0.118189,0 -0.212884,-0.11284 -0.212884,-0.25101 0,-0.13818 0.0947,-0.25102 0.212884,-0.25102 0.11819,0 0.212646,0.11182 0.212646,0.25102 0,0.13919 -0.09628,0.25152 -0.213413,0.25152 z m 0.980467,-0.0535 c -0.110887,0 -0.200369,-0.10593 -0.200369,-0.23694 0,-0.13101 0.08948,-0.23592 0.200369,-0.23592 0.110886,0 0.200369,0.10594 0.200369,0.23592 0,0.12999 -0.09104,0.23746 -0.20193,0.23746 z"
       fill="#2e2d66"
       id="path854"
       style="stroke-width:0.264583" />
    <path
       d="m 39.193326,132.86186 1.19335,-0.0338 -0.810868,0.577 0.611029,0.40864 -1.050661,0.12333 z"
       fill="#2e2d66"
       id="path856"
       style="stroke-width:0.264583" />
    <path
       d="m 36.341568,138.91597 h -0.512683 v 1.65348 h 0.512683 z"
       fill="#2e2d66"
       id="path858"
       style="stroke-width:0.264583" />
    <path
       d="m 35.318371,138.91597 h -0.512683 v 1.65348 h 0.512683 z"
       fill="#2e2d66"
       id="path860"
       style="stroke-width:0.264583" />
  </g>
</svg>
